<mxfile host="app.diagrams.net" modified="2024-03-19T21:41:00.023Z" agent="Mozilla/5.0 (Windows NT 10.0; Win64; x64) AppleWebKit/537.36 (KHTML, like Gecko) Chrome/122.0.0.0 Safari/537.36" etag="c7Q5Y_T3lojYlELX__V6" version="24.0.7" type="device">
  <diagram name="Page-1" id="ikpa0N6V0F6f6oNgvDjk">
    <mxGraphModel dx="1400" dy="2395" grid="1" gridSize="10" guides="1" tooltips="1" connect="1" arrows="1" fold="1" page="1" pageScale="1" pageWidth="1169" pageHeight="827" math="0" shadow="0">
      <root>
        <mxCell id="0" />
        <mxCell id="1" parent="0" />
        <mxCell id="27CEJ3qSUcZdUpPEAfoK-3" value="" style="rounded=0;whiteSpace=wrap;html=1;fillColor=#906427;strokeColor=#006EAF;rotation=0;fontColor=#ffffff;" vertex="1" parent="1">
          <mxGeometry x="420" y="-1630" width="560" height="950" as="geometry" />
        </mxCell>
        <mxCell id="27CEJ3qSUcZdUpPEAfoK-4" value="Le Quai Antique" style="text;strokeColor=none;fillColor=none;html=1;fontSize=24;fontStyle=1;verticalAlign=middle;align=center;" vertex="1" parent="1">
          <mxGeometry x="790" y="-1600" width="100" height="40" as="geometry" />
        </mxCell>
        <mxCell id="27CEJ3qSUcZdUpPEAfoK-5" value="Inscription" style="ellipse;whiteSpace=wrap;html=1;" vertex="1" parent="1">
          <mxGeometry x="800" y="-940" width="120" height="80" as="geometry" />
        </mxCell>
        <mxCell id="27CEJ3qSUcZdUpPEAfoK-56" style="rounded=0;orthogonalLoop=1;jettySize=auto;html=1;endArrow=none;endFill=0;" edge="1" parent="1" source="27CEJ3qSUcZdUpPEAfoK-6" target="27CEJ3qSUcZdUpPEAfoK-50">
          <mxGeometry relative="1" as="geometry" />
        </mxCell>
        <mxCell id="27CEJ3qSUcZdUpPEAfoK-57" style="rounded=0;orthogonalLoop=1;jettySize=auto;html=1;entryX=0;entryY=0.5;entryDx=0;entryDy=0;endArrow=none;endFill=0;" edge="1" parent="1" source="27CEJ3qSUcZdUpPEAfoK-6" target="27CEJ3qSUcZdUpPEAfoK-51">
          <mxGeometry relative="1" as="geometry" />
        </mxCell>
        <mxCell id="27CEJ3qSUcZdUpPEAfoK-6" value="Administrateur" style="shape=umlActor;verticalLabelPosition=bottom;verticalAlign=top;html=1;outlineConnect=0;" vertex="1" parent="1">
          <mxGeometry x="270" y="-1310" width="30" height="60" as="geometry" />
        </mxCell>
        <mxCell id="27CEJ3qSUcZdUpPEAfoK-19" style="rounded=0;orthogonalLoop=1;jettySize=auto;html=1;endArrow=none;endFill=0;entryX=0.033;entryY=0.635;entryDx=0;entryDy=0;entryPerimeter=0;" edge="1" parent="1" source="27CEJ3qSUcZdUpPEAfoK-7" target="27CEJ3qSUcZdUpPEAfoK-17">
          <mxGeometry relative="1" as="geometry">
            <mxPoint x="480" y="-1110" as="targetPoint" />
          </mxGeometry>
        </mxCell>
        <mxCell id="27CEJ3qSUcZdUpPEAfoK-27" style="rounded=0;orthogonalLoop=1;jettySize=auto;html=1;endArrow=none;endFill=0;entryX=0.032;entryY=0.705;entryDx=0;entryDy=0;entryPerimeter=0;" edge="1" parent="1" source="27CEJ3qSUcZdUpPEAfoK-7" target="27CEJ3qSUcZdUpPEAfoK-25">
          <mxGeometry relative="1" as="geometry" />
        </mxCell>
        <mxCell id="27CEJ3qSUcZdUpPEAfoK-7" value="Client" style="shape=umlActor;verticalLabelPosition=bottom;verticalAlign=top;html=1;outlineConnect=0;" vertex="1" parent="1">
          <mxGeometry x="270" y="-920" width="30" height="60" as="geometry" />
        </mxCell>
        <mxCell id="27CEJ3qSUcZdUpPEAfoK-16" style="rounded=0;orthogonalLoop=1;jettySize=auto;html=1;entryX=0.973;entryY=0.615;entryDx=0;entryDy=0;endArrow=none;endFill=0;entryPerimeter=0;" edge="1" parent="1" source="27CEJ3qSUcZdUpPEAfoK-10" target="27CEJ3qSUcZdUpPEAfoK-5">
          <mxGeometry relative="1" as="geometry" />
        </mxCell>
        <mxCell id="27CEJ3qSUcZdUpPEAfoK-18" style="rounded=0;orthogonalLoop=1;jettySize=auto;html=1;endArrow=none;endFill=0;entryX=0.977;entryY=0.37;entryDx=0;entryDy=0;entryPerimeter=0;" edge="1" parent="1" source="27CEJ3qSUcZdUpPEAfoK-10" target="27CEJ3qSUcZdUpPEAfoK-17">
          <mxGeometry relative="1" as="geometry" />
        </mxCell>
        <mxCell id="27CEJ3qSUcZdUpPEAfoK-26" style="rounded=0;orthogonalLoop=1;jettySize=auto;html=1;endArrow=none;endFill=0;entryX=1.005;entryY=0.605;entryDx=0;entryDy=0;entryPerimeter=0;" edge="1" parent="1" source="27CEJ3qSUcZdUpPEAfoK-10" target="27CEJ3qSUcZdUpPEAfoK-25">
          <mxGeometry relative="1" as="geometry" />
        </mxCell>
        <mxCell id="27CEJ3qSUcZdUpPEAfoK-10" value="Visiteur" style="shape=umlActor;verticalLabelPosition=bottom;verticalAlign=top;html=1;outlineConnect=0;" vertex="1" parent="1">
          <mxGeometry x="1030" y="-1040" width="30" height="60" as="geometry" />
        </mxCell>
        <mxCell id="27CEJ3qSUcZdUpPEAfoK-35" style="rounded=0;orthogonalLoop=1;jettySize=auto;html=1;endArrow=none;endFill=0;entryX=0.052;entryY=0.29;entryDx=0;entryDy=0;entryPerimeter=0;" edge="1" parent="1" source="27CEJ3qSUcZdUpPEAfoK-6" target="27CEJ3qSUcZdUpPEAfoK-25">
          <mxGeometry relative="1" as="geometry">
            <mxPoint x="470" y="-1330" as="targetPoint" />
          </mxGeometry>
        </mxCell>
        <mxCell id="27CEJ3qSUcZdUpPEAfoK-25" value="Afficher la carte" style="ellipse;whiteSpace=wrap;html=1;" vertex="1" parent="1">
          <mxGeometry x="480" y="-1210" width="120" height="80" as="geometry" />
        </mxCell>
        <mxCell id="27CEJ3qSUcZdUpPEAfoK-17" value="Réserver une table" style="ellipse;whiteSpace=wrap;html=1;" vertex="1" parent="1">
          <mxGeometry x="610" y="-940" width="120" height="80" as="geometry" />
        </mxCell>
        <mxCell id="27CEJ3qSUcZdUpPEAfoK-20" value="Connexion" style="ellipse;whiteSpace=wrap;html=1;" vertex="1" parent="1">
          <mxGeometry x="630" y="-810" width="120" height="80" as="geometry" />
        </mxCell>
        <mxCell id="27CEJ3qSUcZdUpPEAfoK-40" value="Gestion de ses réservations" style="ellipse;whiteSpace=wrap;html=1;" vertex="1" parent="1">
          <mxGeometry x="480" y="-1030" width="120" height="80" as="geometry" />
        </mxCell>
        <mxCell id="27CEJ3qSUcZdUpPEAfoK-43" style="rounded=0;orthogonalLoop=1;jettySize=auto;html=1;entryX=0.025;entryY=0.365;entryDx=0;entryDy=0;entryPerimeter=0;endArrow=none;endFill=0;" edge="1" parent="1" source="27CEJ3qSUcZdUpPEAfoK-7" target="27CEJ3qSUcZdUpPEAfoK-40">
          <mxGeometry relative="1" as="geometry" />
        </mxCell>
        <mxCell id="27CEJ3qSUcZdUpPEAfoK-44" value="Modifier ses&lt;br&gt;&amp;nbsp;données personnelles" style="ellipse;whiteSpace=wrap;html=1;" vertex="1" parent="1">
          <mxGeometry x="480" y="-1120" width="120" height="80" as="geometry" />
        </mxCell>
        <mxCell id="27CEJ3qSUcZdUpPEAfoK-45" style="rounded=0;orthogonalLoop=1;jettySize=auto;html=1;dashed=1;entryX=0.5;entryY=1;entryDx=0;entryDy=0;" edge="1" parent="1" source="27CEJ3qSUcZdUpPEAfoK-20" target="27CEJ3qSUcZdUpPEAfoK-17">
          <mxGeometry relative="1" as="geometry" />
        </mxCell>
        <mxCell id="27CEJ3qSUcZdUpPEAfoK-23" value="&lt;font style=&quot;font-size: 9px;&quot;&gt;&amp;lt;&amp;lt;include&amp;gt;&amp;gt;&lt;/font&gt;" style="text;html=1;align=center;verticalAlign=middle;whiteSpace=wrap;rounded=0;fillColor=#f5f5f5;fontColor=#333333;strokeColor=none;" vertex="1" parent="1">
          <mxGeometry x="650" y="-840" width="60" height="14" as="geometry" />
        </mxCell>
        <mxCell id="27CEJ3qSUcZdUpPEAfoK-46" style="rounded=0;orthogonalLoop=1;jettySize=auto;html=1;entryX=0;entryY=0.5;entryDx=0;entryDy=0;endArrow=none;endFill=0;" edge="1" parent="1" source="27CEJ3qSUcZdUpPEAfoK-7" target="27CEJ3qSUcZdUpPEAfoK-44">
          <mxGeometry relative="1" as="geometry" />
        </mxCell>
        <mxCell id="27CEJ3qSUcZdUpPEAfoK-50" value="Gérer les images" style="ellipse;whiteSpace=wrap;html=1;" vertex="1" parent="1">
          <mxGeometry x="480" y="-1320" width="120" height="80" as="geometry" />
        </mxCell>
        <mxCell id="27CEJ3qSUcZdUpPEAfoK-51" value="Gérer les réservations" style="ellipse;whiteSpace=wrap;html=1;" vertex="1" parent="1">
          <mxGeometry x="560" y="-1420" width="120" height="80" as="geometry" />
        </mxCell>
        <mxCell id="27CEJ3qSUcZdUpPEAfoK-53" value="Gérer les catégories" style="ellipse;whiteSpace=wrap;html=1;" vertex="1" parent="1">
          <mxGeometry x="840" y="-1520" width="120" height="80" as="geometry" />
        </mxCell>
        <mxCell id="27CEJ3qSUcZdUpPEAfoK-58" style="rounded=0;orthogonalLoop=1;jettySize=auto;html=1;entryX=0.083;entryY=0.5;entryDx=0;entryDy=0;entryPerimeter=0;endArrow=none;endFill=0;" edge="1" parent="1" source="27CEJ3qSUcZdUpPEAfoK-6" target="27CEJ3qSUcZdUpPEAfoK-48">
          <mxGeometry relative="1" as="geometry" />
        </mxCell>
        <mxCell id="27CEJ3qSUcZdUpPEAfoK-59" style="rounded=0;orthogonalLoop=1;jettySize=auto;html=1;entryX=0.031;entryY=0.641;entryDx=0;entryDy=0;entryPerimeter=0;endArrow=none;endFill=0;" edge="1" parent="1" source="27CEJ3qSUcZdUpPEAfoK-6" target="27CEJ3qSUcZdUpPEAfoK-52">
          <mxGeometry relative="1" as="geometry" />
        </mxCell>
        <mxCell id="27CEJ3qSUcZdUpPEAfoK-60" style="rounded=0;orthogonalLoop=1;jettySize=auto;html=1;entryX=0.25;entryY=0.625;entryDx=0;entryDy=0;entryPerimeter=0;endArrow=none;endFill=0;" edge="1" parent="1" source="27CEJ3qSUcZdUpPEAfoK-6" target="27CEJ3qSUcZdUpPEAfoK-49">
          <mxGeometry relative="1" as="geometry" />
        </mxCell>
        <mxCell id="27CEJ3qSUcZdUpPEAfoK-65" style="rounded=0;orthogonalLoop=1;jettySize=auto;html=1;dashed=1;" edge="1" parent="1" source="27CEJ3qSUcZdUpPEAfoK-49" target="27CEJ3qSUcZdUpPEAfoK-53">
          <mxGeometry relative="1" as="geometry" />
        </mxCell>
        <mxCell id="27CEJ3qSUcZdUpPEAfoK-49" value="Gérer les plats" style="ellipse;whiteSpace=wrap;html=1;" vertex="1" parent="1">
          <mxGeometry x="620" y="-1520" width="120" height="80" as="geometry" />
        </mxCell>
        <mxCell id="27CEJ3qSUcZdUpPEAfoK-48" value="Gérer les menus" style="ellipse;whiteSpace=wrap;html=1;" vertex="1" parent="1">
          <mxGeometry x="480" y="-1520" width="120" height="80" as="geometry" />
        </mxCell>
        <mxCell id="27CEJ3qSUcZdUpPEAfoK-52" value="Gérer les informations&lt;br&gt;du restaurant" style="ellipse;whiteSpace=wrap;html=1;" vertex="1" parent="1">
          <mxGeometry x="480" y="-1610" width="120" height="80" as="geometry" />
        </mxCell>
        <mxCell id="27CEJ3qSUcZdUpPEAfoK-63" value="&lt;font style=&quot;font-size: 9px;&quot;&gt;&amp;lt;&amp;lt;extend&amp;gt;&amp;gt;&lt;/font&gt;" style="text;html=1;align=center;verticalAlign=middle;whiteSpace=wrap;rounded=0;fillColor=#f5f5f5;fontColor=#333333;strokeColor=none;" vertex="1" parent="1">
          <mxGeometry x="758" y="-1487" width="60" height="14" as="geometry" />
        </mxCell>
      </root>
    </mxGraphModel>
  </diagram>
</mxfile>
